# Blender 5.0.1
# www.blender.org
o Suzanne
v 0.490048 0.046443 -1.413244
v -0.490048 0.046443 -1.413244
v 0.269021 0.139054 -1.172150
v -0.269021 0.139054 -1.172150
v 0.107603 0.163714 -1.340788
v -0.107603 0.163714 -1.340788
v 0.294954 0.363987 -1.173625
v -0.294954 0.363987 -1.173625
v 0.156250 0.437500 -1.330094
v -0.156250 0.437500 -1.330094
v 0.464790 0.413322 -1.434297
v -0.464790 0.413322 -1.434297
v 0.483279 0.259508 -1.201658
v -0.483279 0.259508 -1.201658
v 0.633637 0.242150 -1.411851
v -0.633637 0.242150 -1.411851
v 0.000000 0.354270 -1.232971
v 0.000000 -0.856275 -1.284627
v 0.000000 -0.187500 -1.181656
v 0.000000 0.751092 -2.729378
v 0.000000 -0.245692 -2.673636
v 0.220840 -0.184282 -1.446732
v -0.220840 -0.184282 -1.446732
v 0.388885 -0.957033 -1.482157
v -0.388885 -0.957033 -1.482157
v 0.585378 -0.067866 -1.400641
v -0.585378 -0.067866 -1.400641
v 0.783689 0.113242 -1.561539
v -0.783689 0.113242 -1.561539
v 0.804610 0.402104 -1.347806
v -0.804610 0.402104 -1.347806
v 0.236469 0.773402 -1.265826
v -0.236469 0.773402 -1.265826
v 0.195226 0.301882 -1.219733
v -0.195226 0.301882 -1.219733
v 0.230334 0.129459 -1.220552
v -0.230334 0.129459 -1.220552
v 0.410277 0.084915 -1.260060
v -0.410277 0.084915 -1.260060
v 0.556169 0.261355 -1.297831
v -0.556169 0.261355 -1.297831
v 0.283405 0.404630 -1.213393
v -0.283405 0.404630 -1.213393
v 0.097473 -0.809372 -1.274179
v -0.097473 -0.809372 -1.274179
v 0.000000 -0.195312 -1.228531
v 0.000000 -0.140625 -1.236344
v 0.119590 -0.178550 -1.197957
v -0.119590 -0.178550 -1.197957
v 0.255569 0.639574 -1.125555
v -0.255569 0.639574 -1.125555
v 0.000000 -0.299819 -1.196438
v 0.412083 0.390727 -1.226865
v -0.412083 0.390727 -1.226865
v 0.329139 0.561702 -1.456770
v -0.329139 0.561702 -1.456770
v 0.744704 0.413048 -1.658354
v -0.744704 0.413048 -1.658354
v 0.000000 0.975406 -1.791346
v 0.000000 -0.952586 -1.574502
v 0.000000 -0.487724 -1.679047
v 0.859646 0.368598 -2.171925
v -0.859646 0.368598 -2.171925
v 0.832139 0.384462 -2.430324
v -0.832139 0.384462 -2.430324
v 0.663319 -0.079505 -2.133911
v -0.663319 -0.079505 -2.133911
v 0.633789 -0.057359 -2.389086
v -0.633789 -0.057359 -2.389086
v 0.204572 -0.405374 -1.655163
v -0.204572 -0.405374 -1.655163
v 0.721550 0.694041 -2.351672
v -0.721550 0.694041 -2.351672
v 0.468039 0.900586 -1.827423
v -0.468039 0.900586 -1.827423
v 0.850439 -0.114563 -2.135753
v -0.850439 -0.114563 -2.135753
v 1.192457 0.040631 -2.448506
v -1.192457 0.040631 -2.448506
v 1.291715 0.469157 -2.445769
v -1.291715 0.469157 -2.445769
v 1.199393 0.331910 -2.428053
v -1.199393 0.331910 -2.428053
v 0.972876 0.294463 -2.327039
v -0.972876 0.294463 -2.327039
v 0.834826 0.034626 -2.289389
v -0.834826 0.034626 -2.289389
s 0
f 13 1 15
f 2 14 16
f 13 3 1
f 4 14 2
f 3 5 1
f 6 4 2
f 3 7 5
f 8 4 6
f 8 6 10
f 8 10 12
f 13 11 7
f 15 11 13
f 13 7 3
f 4 8 14
f 22 26 48
f 27 23 49
f 30 26 28
f 33 31 51
f 17 50 32
f 42 50 34
f 30 42 40
f 31 43 51
f 27 41 31
f 36 26 38
f 27 37 39
f 36 17 48
f 17 37 49
f 51 35 17
f 34 17 36
f 17 35 37
f 44 18 24
f 18 45 25
f 48 44 24
f 45 49 25
f 48 18 44
f 49 18 52
f 19 47 46
f 19 47 49
f 47 48 17
f 49 47 17
f 26 40 38
f 41 27 39
f 43 41 54
f 30 55 32
f 31 56 58
f 28 57 30
f 61 24 60
f 61 25 71
f 23 27 29
f 69 21 67
f 21 70 61
f 71 21 61
f 28 66 62
f 67 29 63
f 64 21 20
f 65 21 69
f 59 72 20
f 73 59 20
f 74 57 72
f 58 75 73
f 55 59 17
f 56 59 75
f 29 58 63
f 62 72 57
f 73 63 58
f 72 62 64
f 28 70 66
f 71 29 67
f 82 78 80
f 84 80 62
f 85 81 83
f 76 86 66
f 87 77 67
f 62 86 84
f 63 87 67
f 84 78 82
f 76 68 78
f 69 77 79
f 63 65 81
f 78 64 80
f 79 65 69
f 66 68 76
f 69 67 77
f 7 9 5
f 7 11 9
f 14 8 12
f 16 14 12
f 22 48 24
f 25 49 23
f 31 29 27
f 32 50 30
f 17 33 51
f 43 35 51
f 30 50 42
f 31 41 43
f 26 30 40
f 36 48 26
f 27 49 37
f 50 17 34
f 48 52 18
f 49 45 18
f 19 48 47
f 19 52 48
f 49 52 19
f 42 53 40
f 17 32 55
f 56 33 17
f 30 57 55
f 31 33 56
f 29 31 58
f 61 70 24
f 61 60 25
f 24 18 60
f 60 18 25
f 22 24 70
f 71 25 23
f 22 28 26
f 68 66 21
f 21 66 70
f 71 67 21
f 64 68 21
f 65 20 21
f 59 74 72
f 73 75 59
f 20 72 64
f 65 73 20
f 74 55 57
f 58 56 75
f 55 74 59
f 56 17 59
f 28 62 57
f 73 65 63
f 28 22 70
f 71 23 29
f 83 81 79
f 76 78 86
f 87 79 77
f 84 82 80
f 85 63 81
f 62 66 86
f 63 85 87
f 78 84 86
f 87 85 79
f 85 83 79
f 62 80 64
f 78 68 64
f 79 81 65
