# Blender 4.5.1 LTS
# www.blender.org
o Sphere
v 0.000000 0.831470 -0.555570
v 0.000000 0.555570 -0.831470
v 0.000000 0.195090 -0.980785
v 0.000000 -0.195090 -0.980785
v 0.000000 -0.555570 -0.831470
v 0.074658 0.923880 -0.375330
v 0.137950 0.707107 -0.693520
v 0.180240 0.382683 -0.906127
v 0.195090 0.000000 -0.980785
v 0.180240 -0.382683 -0.906127
v 0.137950 -0.707107 -0.693520
v 0.074658 -0.923880 -0.375330
v 0.074658 0.980785 -0.180240
v 0.212608 0.831470 -0.513280
v 0.318190 0.555570 -0.768178
v 0.375330 0.195090 -0.906127
v 0.375330 -0.195090 -0.906127
v 0.318190 -0.555570 -0.768178
v 0.212608 -0.831470 -0.513280
v 0.074658 -0.980785 -0.180240
v 0.212608 0.923880 -0.318190
v 0.392847 0.707107 -0.587938
v 0.513280 0.382683 -0.768178
v 0.555570 0.000000 -0.831469
v 0.513280 -0.382683 -0.768178
v 0.392847 -0.707107 -0.587938
v 0.212608 -0.923880 -0.318190
v 0.137950 0.980785 -0.137950
v 0.392847 0.831470 -0.392847
v 0.587938 0.555570 -0.587938
v 0.693520 0.195090 -0.693520
v 0.693520 -0.195090 -0.693520
v 0.587938 -0.555570 -0.587938
v 0.392847 -0.831470 -0.392847
v 0.137950 -0.980785 -0.137950
v 0.318190 0.923880 -0.212608
v 0.587938 0.707107 -0.392847
v 0.768178 0.382683 -0.513280
v 0.831470 0.000000 -0.555570
v 0.768178 -0.382683 -0.513280
v 0.587938 -0.707107 -0.392847
v 0.318190 -0.923880 -0.212608
v 0.000000 1.000000 0.000000
v 0.180240 0.980785 -0.074658
v 0.513280 0.831470 -0.212607
v 0.768178 0.555570 -0.318190
v 0.906127 0.195090 -0.375330
v 0.906127 -0.195090 -0.375330
v 0.768178 -0.555570 -0.318190
v 0.513280 -0.831470 -0.212607
v 0.180240 -0.980785 -0.074658
v 0.375330 0.923880 -0.074658
v 0.693520 0.707107 -0.137950
v 0.906127 0.382683 -0.180240
v 0.980785 0.000000 -0.195090
v 0.906127 -0.382683 -0.180240
v 0.693520 -0.707107 -0.137950
v 0.375330 -0.923880 -0.074658
v 0.195090 0.980785 0.000000
v 0.555570 0.831470 0.000000
v 0.831469 0.555570 0.000000
v 0.980785 0.195090 0.000000
v 0.980785 -0.195090 0.000000
v 0.831469 -0.555570 0.000000
v 0.555570 -0.831470 0.000000
v 0.195090 -0.980785 0.000000
v 0.375330 0.923880 0.074658
v 0.693520 0.707107 0.137950
v 0.906127 0.382683 0.180240
v 0.980785 0.000000 0.195090
v 0.906127 -0.382683 0.180240
v 0.693520 -0.707107 0.137950
v 0.375330 -0.923880 0.074658
v 0.180240 0.980785 0.074658
v 0.513280 0.831470 0.212608
v 0.768178 0.555570 0.318190
v 0.906127 0.195090 0.375330
v 0.906127 -0.195090 0.375330
v 0.768178 -0.555570 0.318190
v 0.513280 -0.831470 0.212608
v 0.180240 -0.980785 0.074658
v 0.318190 0.923880 0.212608
v 0.587938 0.707107 0.392847
v 0.768178 0.382683 0.513280
v 0.831469 0.000000 0.555570
v 0.768178 -0.382683 0.513280
v 0.587938 -0.707107 0.392847
v 0.318190 -0.923880 0.212608
v 0.137950 0.980785 0.137950
v 0.392847 0.831470 0.392847
v 0.587938 0.555570 0.587938
v 0.693520 0.195090 0.693520
v 0.693520 -0.195090 0.693520
v 0.587938 -0.555570 0.587938
v 0.392847 -0.831470 0.392847
v 0.137950 -0.980785 0.137950
v 0.212607 0.923880 0.318190
v 0.392847 0.707107 0.587938
v 0.513280 0.382683 0.768178
v 0.555570 0.000000 0.831469
v 0.513280 -0.382683 0.768178
v 0.392847 -0.707107 0.587938
v 0.212607 -0.923880 0.318190
v 0.074658 0.980785 0.180240
v 0.212607 0.831470 0.513280
v 0.318189 0.555570 0.768178
v 0.375330 0.195090 0.906127
v 0.375330 -0.195090 0.906127
v 0.318189 -0.555570 0.768178
v 0.212607 -0.831470 0.513280
v 0.074658 -0.980785 0.180240
v 0.074658 0.923880 0.375330
v 0.137950 0.707107 0.693520
v 0.180240 0.382683 0.906127
v 0.195090 0.000000 0.980785
v 0.180240 -0.382683 0.906127
v 0.137950 -0.707107 0.693520
v 0.074658 -0.923880 0.375330
v -0.000000 0.980785 0.195090
v -0.000000 0.831470 0.555570
v -0.000000 0.555570 0.831469
v -0.000000 0.195090 0.980785
v -0.000000 -0.195090 0.980785
v -0.000000 -0.555570 0.831469
v -0.000000 -0.831470 0.555570
v -0.000000 -0.980785 0.195090
v -0.074658 0.923880 0.375330
v -0.137950 0.707107 0.693520
v -0.180240 0.382683 0.906127
v -0.195091 0.000000 0.980785
v -0.180240 -0.382683 0.906127
v -0.137950 -0.707107 0.693520
v -0.074658 -0.923880 0.375330
v -0.074658 0.980785 0.180240
v -0.212608 0.831470 0.513280
v -0.318190 0.555570 0.768177
v -0.375330 0.195090 0.906127
v -0.375330 -0.195090 0.906127
v -0.318190 -0.555570 0.768177
v -0.212608 -0.831470 0.513280
v -0.074658 -0.980785 0.180240
v -0.212608 0.923880 0.318190
v -0.392847 0.707107 0.587938
v -0.513280 0.382683 0.768178
v -0.555570 0.000000 0.831469
v -0.513280 -0.382683 0.768178
v -0.392847 -0.707107 0.587938
v -0.212608 -0.923880 0.318190
v -0.137950 0.980785 0.137950
v -0.392847 0.831470 0.392847
v -0.587938 0.555570 0.587937
v -0.693520 0.195090 0.693520
v -0.693520 -0.195090 0.693520
v -0.587938 -0.555570 0.587937
v -0.392847 -0.831470 0.392847
v -0.137950 -0.980785 0.137950
v 0.000000 -1.000000 0.000000
v -0.318190 0.923880 0.212607
v -0.587938 0.707107 0.392847
v -0.768177 0.382683 0.513280
v -0.831469 0.000000 0.555569
v -0.768177 -0.382683 0.513280
v -0.587938 -0.707107 0.392847
v -0.318190 -0.923880 0.212607
v -0.180240 0.980785 0.074658
v -0.513280 0.831470 0.212607
v -0.768177 0.555570 0.318189
v -0.906127 0.195090 0.375330
v -0.906127 -0.195090 0.375330
v -0.768177 -0.555570 0.318189
v -0.513280 -0.831470 0.212607
v -0.180240 -0.980785 0.074658
v -0.375330 0.923880 0.074658
v -0.693520 0.707107 0.137950
v -0.906127 0.382683 0.180240
v -0.980784 0.000000 0.195090
v -0.906127 -0.382683 0.180240
v -0.693520 -0.707107 0.137950
v -0.375330 -0.923880 0.074658
v -0.195090 0.980785 -0.000000
v -0.555570 0.831470 -0.000000
v -0.831469 0.555570 -0.000000
v -0.980785 0.195090 -0.000000
v -0.980785 -0.195090 -0.000000
v -0.831469 -0.555570 -0.000000
v -0.555570 -0.831470 -0.000000
v -0.195090 -0.980785 -0.000000
v -0.375330 0.923880 -0.074658
v -0.693520 0.707107 -0.137950
v -0.906127 0.382683 -0.180240
v -0.980784 0.000000 -0.195091
v -0.906127 -0.382683 -0.180240
v -0.693520 -0.707107 -0.137950
v -0.375330 -0.923880 -0.074658
v -0.180240 0.980785 -0.074658
v -0.513279 0.831470 -0.212607
v -0.768177 0.555570 -0.318190
v -0.906127 0.195090 -0.375330
v -0.906127 -0.195090 -0.375330
v -0.768177 -0.555570 -0.318190
v -0.513279 -0.831470 -0.212607
v -0.180240 -0.980785 -0.074658
v -0.318189 0.923880 -0.212607
v -0.587938 0.707107 -0.392847
v -0.768177 0.382683 -0.513280
v -0.831468 0.000000 -0.555570
v -0.768177 -0.382683 -0.513280
v -0.587938 -0.707107 -0.392847
v -0.318189 -0.923880 -0.212607
v -0.137950 0.980785 -0.137950
v -0.392847 0.831470 -0.392847
v -0.587937 0.555570 -0.587938
v -0.693519 0.195090 -0.693520
v -0.693519 -0.195090 -0.693520
v -0.587937 -0.555570 -0.587938
v -0.392847 -0.831470 -0.392847
v -0.137950 -0.980785 -0.137950
v -0.212607 0.923880 -0.318190
v -0.392847 0.707107 -0.587938
v -0.513280 0.382683 -0.768177
v -0.555569 0.000000 -0.831469
v -0.513280 -0.382683 -0.768177
v -0.392847 -0.707107 -0.587938
v -0.212607 -0.923880 -0.318190
v -0.074658 0.980785 -0.180240
v -0.212607 0.831470 -0.513279
v -0.318189 0.555570 -0.768177
v -0.375330 0.195090 -0.906127
v -0.375330 -0.195090 -0.906127
v -0.318189 -0.555570 -0.768177
v -0.212607 -0.831470 -0.513279
v -0.074658 -0.980785 -0.180240
v -0.074658 0.923880 -0.375330
v -0.137950 0.707107 -0.693520
v -0.180240 0.382683 -0.906127
v -0.195090 0.000000 -0.980784
v -0.180240 -0.382683 -0.906127
v -0.137950 -0.707107 -0.693520
v -0.074658 -0.923880 -0.375330
v 0.000000 0.980785 -0.195090
v 0.000000 -0.831470 -0.555570
v 0.000000 -0.980785 -0.195090
vn -0.0000 0.8263 -0.5633
vn -0.0000 0.5466 -0.8374
vn -0.0000 0.1902 -0.9817
vn -0.0000 -0.1902 -0.9817
vn -0.0000 -0.5466 -0.8374
vn 0.0761 0.9208 -0.3826
vn 0.1394 0.6995 -0.7009
vn 0.1809 0.3745 -0.9094
vn 0.1951 -0.0000 -0.9808
vn 0.1809 -0.3745 -0.9094
vn 0.1394 -0.6995 -0.7009
vn 0.0761 -0.9208 -0.3826
vn 0.0779 0.9791 -0.1880
vn 0.2155 0.8263 -0.5204
vn 0.3205 0.5466 -0.7736
vn 0.3757 0.1902 -0.9070
vn 0.3757 -0.1902 -0.9070
vn 0.3205 -0.5466 -0.7736
vn 0.2155 -0.8263 -0.5204
vn 0.0779 -0.9791 -0.1880
vn 0.2167 0.9208 -0.3243
vn 0.3970 0.6995 -0.5942
vn 0.5151 0.3745 -0.7709
vn 0.5556 -0.0000 -0.8315
vn 0.5151 -0.3745 -0.7709
vn 0.3970 -0.6995 -0.5942
vn 0.2167 -0.9208 -0.3243
vn 0.1439 0.9791 -0.1439
vn 0.3983 0.8263 -0.3983
vn 0.5921 0.5466 -0.5921
vn 0.6942 0.1902 -0.6942
vn 0.6942 -0.1902 -0.6942
vn 0.5921 -0.5466 -0.5921
vn 0.3983 -0.8263 -0.3983
vn 0.1439 -0.9791 -0.1439
vn 0.3243 0.9208 -0.2167
vn 0.5942 0.6995 -0.3970
vn 0.7709 0.3745 -0.5151
vn 0.8315 -0.0000 -0.5556
vn 0.7709 -0.3745 -0.5151
vn 0.5942 -0.6995 -0.3970
vn 0.3243 -0.9208 -0.2167
vn -0.0000 1.0000 -0.0000
vn 0.1880 0.9791 -0.0779
vn 0.5204 0.8263 -0.2155
vn 0.7736 0.5466 -0.3205
vn 0.9070 0.1902 -0.3757
vn 0.9070 -0.1902 -0.3757
vn 0.7736 -0.5466 -0.3205
vn 0.5204 -0.8263 -0.2155
vn 0.1880 -0.9791 -0.0779
vn 0.3826 0.9208 -0.0761
vn 0.7009 0.6995 -0.1394
vn 0.9094 0.3745 -0.1809
vn 0.9808 -0.0000 -0.1951
vn 0.9094 -0.3745 -0.1809
vn 0.7009 -0.6995 -0.1394
vn 0.3826 -0.9208 -0.0761
vn 0.2035 0.9791 -0.0000
vn 0.5633 0.8263 -0.0000
vn 0.8374 0.5466 -0.0000
vn 0.9817 0.1902 -0.0000
vn 0.9817 -0.1902 -0.0000
vn 0.8374 -0.5466 -0.0000
vn 0.5633 -0.8263 -0.0000
vn 0.2035 -0.9791 -0.0000
vn 0.3826 0.9208 0.0761
vn 0.7009 0.6995 0.1394
vn 0.9094 0.3745 0.1809
vn 0.9808 -0.0000 0.1951
vn 0.9094 -0.3745 0.1809
vn 0.7009 -0.6995 0.1394
vn 0.3826 -0.9208 0.0761
vn 0.1880 0.9791 0.0779
vn 0.5204 0.8263 0.2155
vn 0.7736 0.5466 0.3205
vn 0.9070 0.1902 0.3757
vn 0.9070 -0.1902 0.3757
vn 0.7736 -0.5466 0.3205
vn 0.5204 -0.8263 0.2155
vn 0.1880 -0.9791 0.0779
vn 0.3243 0.9208 0.2167
vn 0.5942 0.6995 0.3970
vn 0.7709 0.3745 0.5151
vn 0.8315 -0.0000 0.5556
vn 0.7709 -0.3745 0.5151
vn 0.5942 -0.6995 0.3970
vn 0.3243 -0.9208 0.2167
vn 0.1439 0.9791 0.1439
vn 0.3983 0.8263 0.3983
vn 0.5921 0.5466 0.5921
vn 0.6942 0.1902 0.6942
vn 0.6942 -0.1902 0.6942
vn 0.5921 -0.5466 0.5921
vn 0.3983 -0.8263 0.3983
vn 0.1439 -0.9791 0.1439
vn 0.2167 0.9208 0.3243
vn 0.3970 0.6995 0.5942
vn 0.5151 0.3745 0.7709
vn 0.5556 -0.0000 0.8315
vn 0.5151 -0.3745 0.7709
vn 0.3970 -0.6995 0.5942
vn 0.2167 -0.9208 0.3243
vn 0.0779 0.9791 0.1880
vn 0.2155 0.8263 0.5204
vn 0.3205 0.5466 0.7736
vn 0.3757 0.1902 0.9070
vn 0.3757 -0.1902 0.9070
vn 0.3205 -0.5466 0.7736
vn 0.2155 -0.8263 0.5204
vn 0.0779 -0.9791 0.1880
vn 0.0761 0.9208 0.3826
vn 0.1394 0.6995 0.7009
vn 0.1809 0.3745 0.9094
vn 0.1951 -0.0000 0.9808
vn 0.1809 -0.3745 0.9094
vn 0.1394 -0.6995 0.7009
vn 0.0761 -0.9208 0.3826
vn -0.0000 0.9791 0.2035
vn -0.0000 0.8263 0.5633
vn -0.0000 0.5466 0.8374
vn -0.0000 0.1902 0.9817
vn -0.0000 -0.1902 0.9817
vn -0.0000 -0.5466 0.8374
vn -0.0000 -0.8263 0.5633
vn -0.0000 -0.9791 0.2035
vn -0.0761 0.9208 0.3826
vn -0.1394 0.6995 0.7009
vn -0.1809 0.3745 0.9094
vn -0.1951 -0.0000 0.9808
vn -0.1809 -0.3745 0.9094
vn -0.1394 -0.6995 0.7009
vn -0.0761 -0.9208 0.3826
vn -0.0779 0.9791 0.1880
vn -0.2155 0.8263 0.5204
vn -0.3205 0.5466 0.7736
vn -0.3757 0.1902 0.9070
vn -0.3757 -0.1902 0.9070
vn -0.3205 -0.5466 0.7736
vn -0.2155 -0.8263 0.5204
vn -0.0779 -0.9791 0.1880
vn -0.2167 0.9208 0.3243
vn -0.3970 0.6995 0.5942
vn -0.5151 0.3745 0.7709
vn -0.5556 -0.0000 0.8315
vn -0.5151 -0.3745 0.7709
vn -0.3970 -0.6995 0.5942
vn -0.2167 -0.9208 0.3243
vn -0.1439 0.9791 0.1439
vn -0.3983 0.8263 0.3983
vn -0.5921 0.5466 0.5921
vn -0.6942 0.1902 0.6942
vn -0.6942 -0.1902 0.6942
vn -0.5921 -0.5466 0.5921
vn -0.3983 -0.8263 0.3983
vn -0.1439 -0.9791 0.1439
vn -0.0000 -1.0000 -0.0000
vn -0.3243 0.9208 0.2167
vn -0.5942 0.6995 0.3970
vn -0.7709 0.3745 0.5151
vn -0.8315 -0.0000 0.5556
vn -0.7709 -0.3745 0.5151
vn -0.5942 -0.6995 0.3970
vn -0.3243 -0.9208 0.2167
vn -0.1880 0.9791 0.0779
vn -0.5204 0.8263 0.2155
vn -0.7736 0.5466 0.3205
vn -0.9070 0.1902 0.3757
vn -0.9070 -0.1902 0.3757
vn -0.7736 -0.5466 0.3205
vn -0.5204 -0.8263 0.2155
vn -0.1880 -0.9791 0.0779
vn -0.3826 0.9208 0.0761
vn -0.7009 0.6995 0.1394
vn -0.9094 0.3745 0.1809
vn -0.9808 -0.0000 0.1951
vn -0.9094 -0.3745 0.1809
vn -0.7009 -0.6995 0.1394
vn -0.3826 -0.9208 0.0761
vn -0.2035 0.9791 -0.0000
vn -0.5633 0.8263 -0.0000
vn -0.8374 0.5466 -0.0000
vn -0.9817 0.1902 -0.0000
vn -0.9817 -0.1902 -0.0000
vn -0.8374 -0.5466 -0.0000
vn -0.5633 -0.8263 -0.0000
vn -0.2035 -0.9791 -0.0000
vn -0.3826 0.9208 -0.0761
vn -0.7009 0.6995 -0.1394
vn -0.9094 0.3745 -0.1809
vn -0.9808 -0.0000 -0.1951
vn -0.9094 -0.3745 -0.1809
vn -0.7009 -0.6995 -0.1394
vn -0.3826 -0.9208 -0.0761
vn -0.1880 0.9791 -0.0779
vn -0.5204 0.8263 -0.2155
vn -0.7736 0.5466 -0.3205
vn -0.9070 0.1902 -0.3757
vn -0.9070 -0.1902 -0.3757
vn -0.7736 -0.5466 -0.3205
vn -0.5204 -0.8263 -0.2155
vn -0.1880 -0.9791 -0.0779
vn -0.3243 0.9208 -0.2167
vn -0.5942 0.6995 -0.3970
vn -0.7709 0.3745 -0.5151
vn -0.8315 -0.0000 -0.5556
vn -0.7709 -0.3745 -0.5151
vn -0.5942 -0.6995 -0.3970
vn -0.3243 -0.9208 -0.2167
vn -0.1439 0.9791 -0.1439
vn -0.3983 0.8263 -0.3983
vn -0.5921 0.5466 -0.5921
vn -0.6942 0.1902 -0.6942
vn -0.6942 -0.1902 -0.6942
vn -0.5921 -0.5466 -0.5921
vn -0.3983 -0.8263 -0.3983
vn -0.1439 -0.9791 -0.1439
vn -0.2167 0.9208 -0.3243
vn -0.3970 0.6995 -0.5942
vn -0.5151 0.3745 -0.7709
vn -0.5556 -0.0000 -0.8315
vn -0.5151 -0.3745 -0.7709
vn -0.3970 -0.6995 -0.5942
vn -0.2167 -0.9208 -0.3243
vn -0.0779 0.9791 -0.1880
vn -0.2155 0.8263 -0.5204
vn -0.3205 0.5466 -0.7736
vn -0.3757 0.1902 -0.9070
vn -0.3757 -0.1902 -0.9070
vn -0.3205 -0.5466 -0.7736
vn -0.2155 -0.8263 -0.5204
vn -0.0779 -0.9791 -0.1880
vn -0.0761 0.9208 -0.3826
vn -0.1394 0.6995 -0.7009
vn -0.1809 0.3745 -0.9094
vn -0.1951 -0.0000 -0.9808
vn -0.1809 -0.3745 -0.9094
vn -0.1394 -0.6995 -0.7009
vn -0.0761 -0.9208 -0.3826
vn -0.0000 0.9791 -0.2035
vn -0.0000 -0.8263 -0.5633
vn -0.0000 -0.9791 -0.2035
vt 0.750000 0.437500
vt 0.687500 0.437500
vt 0.718750 0.375000
vt 0.750000 0.812500
vt 0.687500 0.812500
vt 0.718750 0.750000
vt 0.750000 0.312500
vt 0.687500 0.312500
vt 0.718750 0.250000
vt 0.718750 0.625000
vt 0.656250 0.625000
vt 0.687500 0.562500
vt 0.750000 0.687500
vt 0.687500 0.687500
vt 0.781250 0.375000
vt 0.625000 0.812500
vt 0.656250 0.750000
vt 0.750000 0.562500
vt 0.718750 0.500000
vt 0.781250 0.500000
vt 0.625000 0.687500
vt 0.781250 0.625000
vt 0.687500 0.937500
vt 0.750000 0.937500
vt 0.703125 1.000000
vt 0.750000 0.062500
vt 0.687500 0.062500
vt 0.734375 0.000000
vt 0.718750 0.125000
vt 0.656250 0.125000
vt 0.750000 0.187500
vt 0.687500 0.187500
vt 0.656250 0.375000
vt 0.593750 0.750000
vt 0.656250 0.875000
vt 0.593750 0.875000
vt 0.625000 0.937500
vt 0.640625 1.000000
vt 0.625000 0.187500
vt 0.625000 0.312500
vt 0.656250 0.250000
vt 0.625000 0.562500
vt 0.656250 0.500000
vt 0.625000 0.062500
vt 0.671875 0.000000
vt 0.625000 0.437500
vt 0.593750 0.125000
vt 0.562500 0.812500
vt 0.593750 0.375000
vt 0.593750 0.250000
vt 0.593750 0.625000
vt 0.531250 0.875000
vt 0.562500 0.312500
vt 0.562500 0.937500
vt 0.578125 1.000000
vt 0.562500 0.187500
vt 0.562500 0.562500
vt 0.593750 0.500000
vt 0.562500 0.062500
vt 0.609375 0.000000
vt 0.562500 0.687500
vt 0.531250 0.750000
vt 0.562500 0.437500
vt 0.531250 0.500000
vt 0.500000 0.812500
vt 0.531250 0.375000
vt 0.531250 0.250000
vt 0.531250 0.625000
vt 0.531250 0.125000
vt 0.500000 0.312500
vt 0.500000 0.937500
vt 0.515625 1.000000
vt 0.500000 0.562500
vt 0.500000 0.062500
vt 0.546875 0.000000
vt 0.500000 0.687500
vt 0.500000 0.187500
vt 0.500000 0.437500
vt 0.468750 0.750000
vt 0.437500 0.812500
vt 0.468750 0.375000
vt 0.468750 0.250000
vt 0.468750 0.875000
vt 0.437500 0.687500
vt 0.468750 0.625000
vt 0.468750 0.125000
vt 0.437500 0.937500
vt 0.453125 1.000000
vt 0.437500 0.562500
vt 0.468750 0.500000
vt 0.437500 0.062500
vt 0.484375 0.000000
vt 0.437500 0.187500
vt 0.437500 0.437500
vt 0.406250 0.750000
vt 0.437500 0.312500
vt 0.406250 0.500000
vt 0.375000 0.812500
vt 0.406250 0.250000
vt 0.406250 0.875000
vt 0.375000 0.687500
vt 0.406250 0.625000
vt 0.406250 0.375000
vt 0.406250 0.125000
vt 0.343750 0.875000
vt 0.375000 0.937500
vt 0.390625 1.000000
vt 0.375000 0.187500
vt 0.375000 0.562500
vt 0.375000 0.062500
vt 0.421875 0.000000
vt 0.375000 0.437500
vt 0.343750 0.750000
vt 0.375000 0.312500
vt 0.312500 0.812500
vt 0.343750 0.250000
vt 0.312500 0.687500
vt 0.343750 0.625000
vt 0.343750 0.375000
vt 0.343750 0.125000
vt 0.343750 0.500000
vt 0.281250 0.875000
vt 0.312500 0.937500
vt 0.328125 1.000000
vt 0.312500 0.187500
vt 0.312500 0.062500
vt 0.359375 0.000000
vt 0.312500 0.437500
vt 0.312500 0.562500
vt 0.312500 0.312500
vt 0.281250 0.375000
vt 0.281250 0.250000
vt 0.250000 0.687500
vt 0.281250 0.625000
vt 0.281250 0.125000
vt 0.281250 0.750000
vt 0.250000 0.812500
vt 0.281250 0.500000
vt 0.250000 0.937500
vt 0.265625 1.000000
vt 0.250000 0.062500
vt 0.296875 0.000000
vt 0.250000 0.562500
vt 0.250000 0.437500
vt 0.218750 0.875000
vt 0.250000 0.312500
vt 0.250000 0.187500
vt 0.218750 0.375000
vt 0.187500 0.937500
vt 0.203125 1.000000
vt 0.187500 0.687500
vt 0.218750 0.625000
vt 0.218750 0.125000
vt 0.218750 0.750000
vt 0.218750 0.250000
vt 0.218750 0.500000
vt 0.187500 0.812500
vt 0.187500 0.562500
vt 0.187500 0.062500
vt 0.234375 0.000000
vt 0.187500 0.437500
vt 0.156250 0.750000
vt 0.156250 0.875000
vt 0.187500 0.312500
vt 0.187500 0.187500
vt 0.125000 0.937500
vt 0.140625 1.000000
vt 0.125000 0.687500
vt 0.156250 0.625000
vt 0.156250 0.125000
vt 0.156250 0.250000
vt 0.156250 0.500000
vt 0.125000 0.812500
vt 0.156250 0.375000
vt 0.125000 0.562500
vt 0.125000 0.062500
vt 0.171875 0.000000
vt 0.093750 0.750000
vt 0.093750 0.875000
vt 0.125000 0.312500
vt 0.125000 0.437500
vt 0.125000 0.187500
vt 0.093750 0.250000
vt 0.062500 0.687500
vt 0.093750 0.625000
vt 0.093750 0.125000
vt 0.093750 0.500000
vt 0.062500 0.812500
vt 0.093750 0.375000
vt 0.062500 0.062500
vt 0.109375 0.000000
vt 0.031250 0.750000
vt 0.031250 0.875000
vt 0.062500 0.312500
vt 0.062500 0.437500
vt 0.062500 0.937500
vt 0.078125 1.000000
vt 0.062500 0.187500
vt 0.062500 0.562500
vt 0.031250 0.250000
vt 0.000000 0.687500
vt 0.031250 0.625000
vt 0.031250 0.125000
vt 0.031250 0.500000
vt 0.031250 0.375000
vt 0.000000 0.437500
vt 0.968750 0.750000
vt 0.968750 0.875000
vt 0.000000 0.812500
vt 0.000000 0.312500
vt 0.000000 0.937500
vt 0.015625 1.000000
vt 0.000000 0.187500
vt 0.000000 0.062500
vt 0.046875 0.000000
vt 0.000000 0.562500
vt 1.000000 0.687500
vt 0.937500 0.687500
vt 0.968750 0.625000
vt 0.968750 0.500000
vt 0.968750 0.125000
vt 0.968750 0.375000
vt 0.968750 0.250000
vt 1.000000 0.437500
vt 0.937500 0.437500
vt 0.906250 0.750000
vt 0.906250 0.875000
vt 0.937500 0.812500
vt 0.937500 0.937500
vt 1.000000 0.937500
vt 0.953125 1.000000
vt 1.000000 0.187500
vt 0.937500 0.187500
vt 1.000000 0.812500
vt 1.000000 0.312500
vt 0.937500 0.312500
vt 1.000000 0.562500
vt 0.937500 0.562500
vt 1.000000 0.062500
vt 0.937500 0.062500
vt 0.984375 0.000000
vt 0.906250 0.625000
vt 0.906250 0.125000
vt 0.906250 0.500000
vt 0.875000 0.812500
vt 0.906250 0.375000
vt 0.906250 0.250000
vt 0.875000 0.687500
vt 0.843750 0.750000
vt 0.843750 0.875000
vt 0.875000 0.937500
vt 0.890625 1.000000
vt 0.875000 0.187500
vt 0.875000 0.312500
vt 0.875000 0.562500
vt 0.875000 0.062500
vt 0.921875 0.000000
vt 0.875000 0.437500
vt 0.843750 0.625000
vt 0.843750 0.125000
vt 0.812500 0.812500
vt 0.843750 0.375000
vt 0.843750 0.500000
vt 0.812500 0.687500
vt 0.843750 0.250000
vt 0.781250 0.875000
vt 0.812500 0.312500
vt 0.812500 0.937500
vt 0.828125 1.000000
vt 0.812500 0.187500
vt 0.812500 0.562500
vt 0.812500 0.062500
vt 0.859375 0.000000
vt 0.812500 0.437500
vt 0.781250 0.750000
vt 0.781250 0.125000
vt 0.781250 0.250000
vt 0.765625 1.000000
vt 0.796875 0.000000
vt 0.718750 0.875000
s 1
f 4/1/4 17/2/17 10/3/10
f 1/4/1 14/5/14 7/6/7
f 5/7/5 18/8/18 11/9/11
f 8/10/8 23/11/23 16/12/16
f 2/13/2 15/14/15 8/10/8
f 10/3/10 237/15/237 4/1/4
f 14/5/14 29/16/29 22/17/22
f 3/18/3 16/12/16 9/19/9
f 236/20/236 9/19/9 4/1/4
f 15/14/15 30/21/30 23/11/23
f 8/10/8 235/22/235 2/13/2
f 13/23/13 240/24/240 43/25/43
f 242/26/242 20/27/20 157/28/157
f 7/6/7 22/17/22 15/14/15
f 12/29/12 27/30/27 20/27/20
f 241/31/241 19/32/19 12/29/12
f 16/12/16 17/2/17 9/19/9
f 10/3/10 25/33/25 18/8/18
f 22/17/22 37/34/37 30/21/30
f 21/35/21 36/36/36 29/16/29
f 28/37/28 13/23/13 43/38/43
f 19/32/19 34/39/34 27/30/27
f 18/8/18 33/40/33 26/41/26
f 16/12/16 31/42/31 24/43/24
f 20/27/20 35/44/35 157/45/157
f 17/2/17 32/46/32 25/33/25
f 27/30/27 42/47/42 35/44/35
f 29/16/29 45/48/45 37/34/37
f 25/33/25 40/49/40 33/40/33
f 31/42/31 32/46/32 24/43/24
f 26/41/26 41/50/41 34/39/34
f 23/11/23 38/51/38 31/42/31
f 36/36/36 52/52/52 45/48/45
f 33/40/33 49/53/49 41/50/41
f 44/54/44 28/37/28 43/55/43
f 34/39/34 50/56/50 42/47/42
f 31/42/31 47/57/47 39/58/39
f 35/44/35 51/59/51 157/60/157
f 30/21/30 46/61/46 38/51/38
f 37/34/37 53/62/53 46/61/46
f 32/46/32 48/63/48 40/49/40
f 39/58/39 55/64/55 48/63/48
f 45/48/45 60/65/60 53/62/53
f 40/49/40 56/66/56 49/53/49
f 41/50/41 57/67/57 50/56/50
f 38/51/38 54/68/54 47/57/47
f 42/47/42 58/69/58 51/59/51
f 49/53/49 64/70/64 57/67/57
f 59/71/59 44/54/44 43/72/43
f 47/57/47 62/73/62 55/64/55
f 51/59/51 66/74/66 157/75/157
f 46/61/46 61/76/61 54/68/54
f 50/56/50 65/77/65 58/69/58
f 48/63/48 63/78/63 56/66/56
f 53/62/53 68/79/68 61/76/61
f 62/73/62 63/78/63 55/64/55
f 60/65/60 75/80/75 68/79/68
f 56/66/56 71/81/71 64/70/64
f 57/67/57 72/82/72 65/77/65
f 52/52/52 67/83/67 60/65/60
f 61/76/61 76/84/76 69/85/69
f 58/69/58 73/86/73 66/74/66
f 54/68/54 69/85/69 62/73/62
f 74/87/74 59/71/59 43/88/43
f 62/73/62 77/89/77 70/90/70
f 66/74/66 81/91/81 157/92/157
f 65/77/65 80/93/80 73/86/73
f 63/78/63 78/94/78 71/81/71
f 68/79/68 83/95/83 76/84/76
f 64/70/64 79/96/79 72/82/72
f 70/90/70 85/97/85 78/94/78
f 75/80/75 90/98/90 83/95/83
f 72/82/72 87/99/87 80/93/80
f 67/83/67 82/100/82 75/80/75
f 76/84/76 91/101/91 84/102/84
f 71/81/71 86/103/86 79/96/79
f 69/85/69 84/102/84 77/89/77
f 73/86/73 88/104/88 81/91/81
f 82/100/82 97/105/97 90/98/90
f 89/106/89 74/87/74 43/107/43
f 80/93/80 95/108/95 88/104/88
f 77/89/77 92/109/92 85/97/85
f 81/91/81 96/110/96 157/111/157
f 78/94/78 93/112/93 86/103/86
f 83/95/83 98/113/98 91/101/91
f 79/96/79 94/114/94 87/99/87
f 90/98/90 105/115/105 98/113/98
f 87/99/87 102/116/102 95/108/95
f 91/101/91 106/117/106 99/118/99
f 86/103/86 101/119/101 94/114/94
f 84/102/84 99/118/99 92/109/92
f 88/104/88 103/120/103 96/110/96
f 85/97/85 100/121/100 93/112/93
f 97/105/97 112/122/112 105/115/105
f 104/123/104 89/106/89 43/124/43
f 95/108/95 110/125/110 103/120/103
f 96/110/96 111/126/111 157/127/157
f 93/112/93 108/128/108 101/119/101
f 92/109/92 107/129/107 100/121/100
f 94/114/94 109/130/109 102/116/102
f 101/119/101 116/131/116 109/130/109
f 102/116/102 117/132/117 110/125/110
f 106/117/106 121/133/121 114/134/114
f 99/118/99 114/134/114 107/129/107
f 103/120/103 118/135/118 111/126/111
f 98/113/98 113/136/113 106/117/106
f 105/115/105 120/137/120 113/136/113
f 100/121/100 115/138/115 108/128/108
f 119/139/119 104/123/104 43/140/43
f 111/126/111 126/141/126 157/142/157
f 107/129/107 122/143/122 115/138/115
f 108/128/108 123/144/123 116/131/116
f 112/122/112 127/145/127 120/137/120
f 109/130/109 124/146/124 117/132/117
f 110/125/110 125/147/125 118/135/118
f 116/131/116 131/148/131 124/146/124
f 134/149/134 119/139/119 43/150/43
f 121/133/121 136/151/136 129/152/129
f 114/134/114 129/152/129 122/143/122
f 118/135/118 133/153/133 126/141/126
f 113/136/113 128/154/128 121/133/121
f 117/132/117 132/155/132 125/147/125
f 115/138/115 130/156/130 123/144/123
f 120/137/120 135/157/135 128/154/128
f 122/143/122 137/158/137 130/156/130
f 126/141/126 141/159/141 157/160/157
f 123/144/123 138/161/138 131/148/131
f 128/154/128 143/162/143 136/151/136
f 127/145/127 142/163/142 135/157/135
f 124/146/124 139/164/139 132/155/132
f 125/147/125 140/165/140 133/153/133
f 149/166/149 134/149/134 43/167/43
f 136/151/136 151/168/151 144/169/144
f 129/152/129 144/169/144 137/158/137
f 133/153/133 148/170/148 141/159/141
f 132/155/132 147/171/147 140/165/140
f 130/156/130 145/172/145 138/161/138
f 135/157/135 150/173/150 143/162/143
f 131/148/131 146/174/146 139/164/139
f 137/158/137 152/175/152 145/172/145
f 141/159/141 156/176/156 157/177/157
f 143/162/143 159/178/159 151/168/151
f 142/163/142 158/179/158 150/173/150
f 139/164/139 154/180/154 147/171/147
f 138/161/138 153/181/153 146/174/146
f 140/165/140 155/182/155 148/170/148
f 147/171/147 163/183/163 155/182/155
f 151/168/151 167/184/167 160/185/160
f 144/169/144 160/185/160 152/175/152
f 148/170/148 164/186/164 156/176/156
f 145/172/145 161/187/161 153/181/153
f 150/173/150 166/188/166 159/178/159
f 146/174/146 162/189/162 154/180/154
f 156/176/156 172/190/172 157/191/157
f 159/178/159 174/192/174 167/184/167
f 158/179/158 173/193/173 166/188/166
f 154/180/154 170/194/170 163/183/163
f 153/181/153 169/195/169 162/189/162
f 165/196/165 149/166/149 43/197/43
f 155/182/155 171/198/171 164/186/164
f 152/175/152 168/199/168 161/187/161
f 163/183/163 178/200/178 171/198/171
f 167/184/167 182/201/182 175/202/175
f 164/186/164 179/203/179 172/190/172
f 161/187/161 176/204/176 169/195/169
f 160/185/160 175/202/175 168/199/168
f 162/189/162 177/205/177 170/194/170
f 169/195/169 184/206/184 177/205/177
f 174/192/174 189/207/189 182/201/182
f 173/193/173 188/208/188 181/209/181
f 170/194/170 185/210/185 178/200/178
f 180/211/180 165/196/165 43/212/43
f 171/198/171 186/213/186 179/203/179
f 166/188/166 181/209/181 174/192/174
f 172/190/172 187/214/187 157/215/157
f 168/199/168 183/216/183 176/204/176
f 182/217/182 197/218/197 190/219/190
f 175/202/175 190/219/190 183/216/183
f 176/204/176 191/220/191 184/206/184
f 179/203/179 194/221/194 187/214/187
f 177/205/177 192/222/192 185/210/185
f 178/200/178 193/223/193 186/213/186
f 184/224/184 199/225/199 192/222/192
f 189/207/189 204/226/204 197/218/197
f 188/208/188 203/227/203 196/228/196
f 195/229/195 180/230/180 43/231/43
f 186/232/186 201/233/201 194/221/194
f 181/234/181 196/228/196 189/207/189
f 185/235/185 200/236/200 193/223/193
f 183/237/183 198/238/198 191/220/191
f 187/239/187 202/240/202 157/241/157
f 190/219/190 205/242/205 198/238/198
f 194/221/194 209/243/209 202/240/202
f 191/220/191 206/244/206 199/225/199
f 196/228/196 211/245/211 204/226/204
f 192/222/192 207/246/207 200/236/200
f 193/223/193 208/247/208 201/233/201
f 197/218/197 212/248/212 205/242/205
f 204/226/204 219/249/219 212/248/212
f 203/227/203 218/250/218 211/245/211
f 210/251/210 195/229/195 43/252/43
f 201/233/201 216/253/216 209/243/209
f 200/236/200 215/254/215 208/247/208
f 198/238/198 213/255/213 206/244/206
f 202/240/202 217/256/217 157/257/157
f 199/225/199 214/258/214 207/246/207
f 205/242/205 220/259/220 213/255/213
f 209/243/209 224/260/224 217/256/217
f 211/245/211 226/261/226 219/249/219
f 207/246/207 222/262/222 215/254/215
f 206/244/206 221/263/221 214/258/214
f 212/248/212 227/264/227 220/259/220
f 208/247/208 223/265/223 216/253/216
f 218/250/218 233/266/233 226/261/226
f 215/254/215 230/267/230 223/265/223
f 225/268/225 210/251/210 43/269/43
f 216/253/216 231/270/231 224/260/224
f 213/255/213 228/271/228 221/263/221
f 217/256/217 232/272/232 157/273/157
f 214/258/214 229/274/229 222/262/222
f 219/249/219 234/275/234 227/264/227
f 224/260/224 239/276/239 232/272/232
f 226/261/226 1/4/1 234/275/234
f 222/262/222 237/15/237 230/267/230
f 221/263/221 236/20/236 229/274/229
f 223/265/223 238/277/238 231/270/231
f 220/259/220 235/22/235 228/271/228
f 230/267/230 5/7/5 238/277/238
f 240/24/240 225/268/225 43/278/43
f 231/270/231 241/31/241 239/276/239
f 228/271/228 3/18/3 236/20/236
f 232/272/232 242/26/242 157/279/157
f 227/264/227 2/13/2 235/22/235
f 229/274/229 4/1/4 237/15/237
f 11/9/11 238/277/238 5/7/5
f 6/280/6 21/35/21 14/5/14
f 233/266/233 6/280/6 1/4/1
f 7/6/7 234/275/234 1/4/1
f 239/276/239 12/29/12 242/26/242
f 11/9/11 26/41/26 19/32/19
f 4/1/4 9/19/9 17/2/17
f 1/4/1 6/280/6 14/5/14
f 5/7/5 10/3/10 18/8/18
f 8/10/8 15/14/15 23/11/23
f 2/13/2 7/6/7 15/14/15
f 10/3/10 5/7/5 237/15/237
f 14/5/14 21/35/21 29/16/29
f 3/18/3 8/10/8 16/12/16
f 236/20/236 3/18/3 9/19/9
f 15/14/15 22/17/22 30/21/30
f 8/10/8 3/18/3 235/22/235
f 13/23/13 6/280/6 240/24/240
f 242/26/242 12/29/12 20/27/20
f 7/6/7 14/5/14 22/17/22
f 12/29/12 19/32/19 27/30/27
f 241/31/241 11/9/11 19/32/19
f 16/12/16 24/43/24 17/2/17
f 10/3/10 17/2/17 25/33/25
f 22/17/22 29/16/29 37/34/37
f 21/35/21 28/37/28 36/36/36
f 28/37/28 21/35/21 13/23/13
f 19/32/19 26/41/26 34/39/34
f 18/8/18 25/33/25 33/40/33
f 16/12/16 23/11/23 31/42/31
f 20/27/20 27/30/27 35/44/35
f 17/2/17 24/43/24 32/46/32
f 27/30/27 34/39/34 42/47/42
f 29/16/29 36/36/36 45/48/45
f 25/33/25 32/46/32 40/49/40
f 31/42/31 39/58/39 32/46/32
f 26/41/26 33/40/33 41/50/41
f 23/11/23 30/21/30 38/51/38
f 36/36/36 44/54/44 52/52/52
f 33/40/33 40/49/40 49/53/49
f 44/54/44 36/36/36 28/37/28
f 34/39/34 41/50/41 50/56/50
f 31/42/31 38/51/38 47/57/47
f 35/44/35 42/47/42 51/59/51
f 30/21/30 37/34/37 46/61/46
f 37/34/37 45/48/45 53/62/53
f 32/46/32 39/58/39 48/63/48
f 39/58/39 47/57/47 55/64/55
f 45/48/45 52/52/52 60/65/60
f 40/49/40 48/63/48 56/66/56
f 41/50/41 49/53/49 57/67/57
f 38/51/38 46/61/46 54/68/54
f 42/47/42 50/56/50 58/69/58
f 49/53/49 56/66/56 64/70/64
f 59/71/59 52/52/52 44/54/44
f 47/57/47 54/68/54 62/73/62
f 51/59/51 58/69/58 66/74/66
f 46/61/46 53/62/53 61/76/61
f 50/56/50 57/67/57 65/77/65
f 48/63/48 55/64/55 63/78/63
f 53/62/53 60/65/60 68/79/68
f 62/73/62 70/90/70 63/78/63
f 60/65/60 67/83/67 75/80/75
f 56/66/56 63/78/63 71/81/71
f 57/67/57 64/70/64 72/82/72
f 52/52/52 59/71/59 67/83/67
f 61/76/61 68/79/68 76/84/76
f 58/69/58 65/77/65 73/86/73
f 54/68/54 61/76/61 69/85/69
f 74/87/74 67/83/67 59/71/59
f 62/73/62 69/85/69 77/89/77
f 66/74/66 73/86/73 81/91/81
f 65/77/65 72/82/72 80/93/80
f 63/78/63 70/90/70 78/94/78
f 68/79/68 75/80/75 83/95/83
f 64/70/64 71/81/71 79/96/79
f 70/90/70 77/89/77 85/97/85
f 75/80/75 82/100/82 90/98/90
f 72/82/72 79/96/79 87/99/87
f 67/83/67 74/87/74 82/100/82
f 76/84/76 83/95/83 91/101/91
f 71/81/71 78/94/78 86/103/86
f 69/85/69 76/84/76 84/102/84
f 73/86/73 80/93/80 88/104/88
f 82/100/82 89/106/89 97/105/97
f 89/106/89 82/100/82 74/87/74
f 80/93/80 87/99/87 95/108/95
f 77/89/77 84/102/84 92/109/92
f 81/91/81 88/104/88 96/110/96
f 78/94/78 85/97/85 93/112/93
f 83/95/83 90/98/90 98/113/98
f 79/96/79 86/103/86 94/114/94
f 90/98/90 97/105/97 105/115/105
f 87/99/87 94/114/94 102/116/102
f 91/101/91 98/113/98 106/117/106
f 86/103/86 93/112/93 101/119/101
f 84/102/84 91/101/91 99/118/99
f 88/104/88 95/108/95 103/120/103
f 85/97/85 92/109/92 100/121/100
f 97/105/97 104/123/104 112/122/112
f 104/123/104 97/105/97 89/106/89
f 95/108/95 102/116/102 110/125/110
f 96/110/96 103/120/103 111/126/111
f 93/112/93 100/121/100 108/128/108
f 92/109/92 99/118/99 107/129/107
f 94/114/94 101/119/101 109/130/109
f 101/119/101 108/128/108 116/131/116
f 102/116/102 109/130/109 117/132/117
f 106/117/106 113/136/113 121/133/121
f 99/118/99 106/117/106 114/134/114
f 103/120/103 110/125/110 118/135/118
f 98/113/98 105/115/105 113/136/113
f 105/115/105 112/122/112 120/137/120
f 100/121/100 107/129/107 115/138/115
f 119/139/119 112/122/112 104/123/104
f 111/126/111 118/135/118 126/141/126
f 107/129/107 114/134/114 122/143/122
f 108/128/108 115/138/115 123/144/123
f 112/122/112 119/139/119 127/145/127
f 109/130/109 116/131/116 124/146/124
f 110/125/110 117/132/117 125/147/125
f 116/131/116 123/144/123 131/148/131
f 134/149/134 127/145/127 119/139/119
f 121/133/121 128/154/128 136/151/136
f 114/134/114 121/133/121 129/152/129
f 118/135/118 125/147/125 133/153/133
f 113/136/113 120/137/120 128/154/128
f 117/132/117 124/146/124 132/155/132
f 115/138/115 122/143/122 130/156/130
f 120/137/120 127/145/127 135/157/135
f 122/143/122 129/152/129 137/158/137
f 126/141/126 133/153/133 141/159/141
f 123/144/123 130/156/130 138/161/138
f 128/154/128 135/157/135 143/162/143
f 127/145/127 134/149/134 142/163/142
f 124/146/124 131/148/131 139/164/139
f 125/147/125 132/155/132 140/165/140
f 149/166/149 142/163/142 134/149/134
f 136/151/136 143/162/143 151/168/151
f 129/152/129 136/151/136 144/169/144
f 133/153/133 140/165/140 148/170/148
f 132/155/132 139/164/139 147/171/147
f 130/156/130 137/158/137 145/172/145
f 135/157/135 142/163/142 150/173/150
f 131/148/131 138/161/138 146/174/146
f 137/158/137 144/169/144 152/175/152
f 141/159/141 148/170/148 156/176/156
f 143/162/143 150/173/150 159/178/159
f 142/163/142 149/166/149 158/179/158
f 139/164/139 146/174/146 154/180/154
f 138/161/138 145/172/145 153/181/153
f 140/165/140 147/171/147 155/182/155
f 147/171/147 154/180/154 163/183/163
f 151/168/151 159/178/159 167/184/167
f 144/169/144 151/168/151 160/185/160
f 148/170/148 155/182/155 164/186/164
f 145/172/145 152/175/152 161/187/161
f 150/173/150 158/179/158 166/188/166
f 146/174/146 153/181/153 162/189/162
f 156/176/156 164/186/164 172/190/172
f 159/178/159 166/188/166 174/192/174
f 158/179/158 165/196/165 173/193/173
f 154/180/154 162/189/162 170/194/170
f 153/181/153 161/187/161 169/195/169
f 165/196/165 158/179/158 149/166/149
f 155/182/155 163/183/163 171/198/171
f 152/175/152 160/185/160 168/199/168
f 163/183/163 170/194/170 178/200/178
f 167/184/167 174/192/174 182/201/182
f 164/186/164 171/198/171 179/203/179
f 161/187/161 168/199/168 176/204/176
f 160/185/160 167/184/167 175/202/175
f 162/189/162 169/195/169 177/205/177
f 169/195/169 176/204/176 184/206/184
f 174/192/174 181/234/181 189/207/189
f 173/193/173 180/230/180 188/208/188
f 170/194/170 177/205/177 185/210/185
f 180/211/180 173/193/173 165/196/165
f 171/198/171 178/200/178 186/213/186
f 166/188/166 173/193/173 181/209/181
f 172/190/172 179/203/179 187/214/187
f 168/199/168 175/202/175 183/216/183
f 182/217/182 189/207/189 197/218/197
f 175/202/175 182/217/182 190/219/190
f 176/204/176 183/237/183 191/220/191
f 179/203/179 186/232/186 194/221/194
f 177/205/177 184/224/184 192/222/192
f 178/200/178 185/235/185 193/223/193
f 184/224/184 191/220/191 199/225/199
f 189/207/189 196/228/196 204/226/204
f 188/208/188 195/229/195 203/227/203
f 195/229/195 188/208/188 180/230/180
f 186/232/186 193/223/193 201/233/201
f 181/234/181 188/208/188 196/228/196
f 185/235/185 192/222/192 200/236/200
f 183/237/183 190/219/190 198/238/198
f 187/239/187 194/221/194 202/240/202
f 190/219/190 197/218/197 205/242/205
f 194/221/194 201/233/201 209/243/209
f 191/220/191 198/238/198 206/244/206
f 196/228/196 203/227/203 211/245/211
f 192/222/192 199/225/199 207/246/207
f 193/223/193 200/236/200 208/247/208
f 197/218/197 204/226/204 212/248/212
f 204/226/204 211/245/211 219/249/219
f 203/227/203 210/251/210 218/250/218
f 210/251/210 203/227/203 195/229/195
f 201/233/201 208/247/208 216/253/216
f 200/236/200 207/246/207 215/254/215
f 198/238/198 205/242/205 213/255/213
f 202/240/202 209/243/209 217/256/217
f 199/225/199 206/244/206 214/258/214
f 205/242/205 212/248/212 220/259/220
f 209/243/209 216/253/216 224/260/224
f 211/245/211 218/250/218 226/261/226
f 207/246/207 214/258/214 222/262/222
f 206/244/206 213/255/213 221/263/221
f 212/248/212 219/249/219 227/264/227
f 208/247/208 215/254/215 223/265/223
f 218/250/218 225/268/225 233/266/233
f 215/254/215 222/262/222 230/267/230
f 225/268/225 218/250/218 210/251/210
f 216/253/216 223/265/223 231/270/231
f 213/255/213 220/259/220 228/271/228
f 217/256/217 224/260/224 232/272/232
f 214/258/214 221/263/221 229/274/229
f 219/249/219 226/261/226 234/275/234
f 224/260/224 231/270/231 239/276/239
f 226/261/226 233/266/233 1/4/1
f 222/262/222 229/274/229 237/15/237
f 221/263/221 228/271/228 236/20/236
f 223/265/223 230/267/230 238/277/238
f 220/259/220 227/264/227 235/22/235
f 230/267/230 237/15/237 5/7/5
f 240/24/240 233/266/233 225/268/225
f 231/270/231 238/277/238 241/31/241
f 228/271/228 235/22/235 3/18/3
f 232/272/232 239/276/239 242/26/242
f 227/264/227 234/275/234 2/13/2
f 229/274/229 236/20/236 4/1/4
f 11/9/11 241/31/241 238/277/238
f 6/280/6 13/23/13 21/35/21
f 233/266/233 240/24/240 6/280/6
f 7/6/7 2/13/2 234/275/234
f 239/276/239 241/31/241 12/29/12
f 11/9/11 18/8/18 26/41/26
