# Blender 5.0.1
# www.blender.org
o Cube
v 0.437330 0.437330 -0.437330
v -0.283597 0.985985 0.444671
v 0.437330 -0.437330 -0.437330
v -0.709777 1.707989 0.195448
v 0.437330 0.437330 0.437330
v 0.000950 0.871213 -0.374409
v 0.437330 -0.437330 0.437330
v -0.425230 1.593217 -0.623632
v -0.437330 0.437330 -0.437330
v 0.425230 1.466161 0.623632
v -0.437330 -0.437330 -0.437330
v -0.000950 2.188165 0.374409
v -0.437330 0.437330 0.437330
v 0.709777 1.351389 -0.195448
v -0.437330 -0.437330 0.437330
v 0.283597 2.073393 -0.444671
s 0
f 9 5 1
f 5 15 7
f 13 11 15
f 3 15 11
f 1 7 3
f 9 3 11
f 9 13 5
f 5 13 15
f 13 9 11
f 3 7 15
f 1 5 7
f 9 1 3
f 4 6 2
f 8 14 6
f 16 10 14
f 12 2 10
f 14 2 6
f 8 12 16
f 4 8 6
f 8 16 14
f 16 12 10
f 12 4 2
f 14 10 2
f 8 4 12
